%TF.GenerationSoftware,KiCad,Pcbnew,6.0.8-f2edbf62ab~116~ubuntu22.04.1*%
%TF.CreationDate,2022-10-18T20:55:33+08:00*%
%TF.ProjectId,HMT-1,484d542d-312e-46b6-9963-61645f706362,0*%
%TF.SameCoordinates,Original*%
%TF.FileFunction,Paste,Top*%
%TF.FilePolarity,Positive*%
%FSLAX46Y46*%
G04 Gerber Fmt 4.6, Leading zero omitted, Abs format (unit mm)*
G04 Created by KiCad (PCBNEW 6.0.8-f2edbf62ab~116~ubuntu22.04.1) date 2022-10-18 20:55:33*
%MOMM*%
%LPD*%
G01*
G04 APERTURE LIST*
G04 Aperture macros list*
%AMRoundRect*
0 Rectangle with rounded corners*
0 $1 Rounding radius*
0 $2 $3 $4 $5 $6 $7 $8 $9 X,Y pos of 4 corners*
0 Add a 4 corners polygon primitive as box body*
4,1,4,$2,$3,$4,$5,$6,$7,$8,$9,$2,$3,0*
0 Add four circle primitives for the rounded corners*
1,1,$1+$1,$2,$3*
1,1,$1+$1,$4,$5*
1,1,$1+$1,$6,$7*
1,1,$1+$1,$8,$9*
0 Add four rect primitives between the rounded corners*
20,1,$1+$1,$2,$3,$4,$5,0*
20,1,$1+$1,$4,$5,$6,$7,0*
20,1,$1+$1,$6,$7,$8,$9,0*
20,1,$1+$1,$8,$9,$2,$3,0*%
G04 Aperture macros list end*
%ADD10C,0.010000*%
%ADD11RoundRect,0.135000X0.135000X0.185000X-0.135000X0.185000X-0.135000X-0.185000X0.135000X-0.185000X0*%
%ADD12C,1.800000*%
%ADD13RoundRect,0.225000X0.250000X-0.225000X0.250000X0.225000X-0.250000X0.225000X-0.250000X-0.225000X0*%
%ADD14RoundRect,0.250000X0.325000X0.650000X-0.325000X0.650000X-0.325000X-0.650000X0.325000X-0.650000X0*%
%ADD15RoundRect,0.225000X-0.250000X0.225000X-0.250000X-0.225000X0.250000X-0.225000X0.250000X0.225000X0*%
%ADD16RoundRect,0.135000X0.185000X-0.135000X0.185000X0.135000X-0.185000X0.135000X-0.185000X-0.135000X0*%
%ADD17R,2.000000X1.500000*%
%ADD18R,2.000000X3.800000*%
%ADD19R,1.500000X1.500000*%
%ADD20C,1.500000*%
%ADD21O,0.890000X1.550000*%
%ADD22O,1.250000X0.950000*%
%ADD23R,0.400000X1.350000*%
%ADD24R,1.500000X1.550000*%
%ADD25R,1.200000X1.550000*%
%ADD26R,2.600000X1.100000*%
G04 APERTURE END LIST*
%TO.C,U3*%
G36*
X120484000Y-106659000D02*
G01*
X118484000Y-106659000D01*
X118484000Y-104659000D01*
X120484000Y-104659000D01*
X120484000Y-106659000D01*
G37*
D10*
X120484000Y-106659000D02*
X118484000Y-106659000D01*
X118484000Y-104659000D01*
X120484000Y-104659000D01*
X120484000Y-106659000D01*
%TD*%
D11*
%TO.C,R5*%
X130210000Y-117600000D03*
X129190000Y-117600000D03*
%TD*%
%TO.C,R2*%
X113610000Y-123400000D03*
X112590000Y-123400000D03*
%TD*%
%TO.C,R1*%
X128610000Y-128800000D03*
X127590000Y-128800000D03*
%TD*%
D12*
%TO.C,BZ1*%
X105200000Y-127600000D03*
X110200000Y-127600000D03*
%TD*%
D13*
%TO.C,C3*%
X113600000Y-119175000D03*
X113600000Y-117625000D03*
%TD*%
D14*
%TO.C,C2*%
X118475000Y-123400000D03*
X115525000Y-123400000D03*
%TD*%
D11*
%TO.C,R4*%
X109010000Y-113700000D03*
X107990000Y-113700000D03*
%TD*%
D14*
%TO.C,C1*%
X118475000Y-126400000D03*
X115525000Y-126400000D03*
%TD*%
D15*
%TO.C,C4*%
X115600000Y-117625000D03*
X115600000Y-119175000D03*
%TD*%
D16*
%TO.C,R3*%
X109400000Y-112210000D03*
X109400000Y-111190000D03*
%TD*%
D17*
%TO.C,U2*%
X120950000Y-121100000D03*
X120950000Y-123400000D03*
D18*
X127250000Y-123400000D03*
D17*
X120950000Y-125700000D03*
%TD*%
D19*
%TO.C,U1*%
X134400000Y-130510000D03*
D20*
X134400000Y-127970000D03*
X134400000Y-125430000D03*
X134400000Y-122890000D03*
%TD*%
D21*
%TO.C,J1*%
X116000000Y-133250000D03*
X123000000Y-133250000D03*
D22*
X122000000Y-130550000D03*
X117000000Y-130550000D03*
D23*
X118200000Y-130550000D03*
X118850000Y-130550000D03*
X119500000Y-130550000D03*
X120150000Y-130550000D03*
X120800000Y-130550000D03*
D24*
X118500000Y-133250000D03*
D25*
X122400000Y-133250000D03*
X116600000Y-133250000D03*
D24*
X120500000Y-133250000D03*
%TD*%
D11*
%TO.C,R6*%
X130210000Y-119000000D03*
X129190000Y-119000000D03*
%TD*%
D26*
%TO.C,U3*%
X111500000Y-101000000D03*
X111500000Y-103000000D03*
X111500000Y-105000000D03*
X111500000Y-107000000D03*
X111500000Y-109000000D03*
X111500000Y-111000000D03*
X111500000Y-113000000D03*
X111500000Y-115000000D03*
X127500000Y-115000000D03*
X127500000Y-113000000D03*
X127500000Y-111000000D03*
X127500000Y-109000000D03*
X127500000Y-107000000D03*
X127500000Y-105000000D03*
X127500000Y-103000000D03*
X127500000Y-101000000D03*
%TD*%
M02*
