%TF.GenerationSoftware,KiCad,Pcbnew,6.0.8-f2edbf62ab~116~ubuntu22.04.1*%
%TF.CreationDate,2022-10-18T20:55:33+08:00*%
%TF.ProjectId,HMT-1,484d542d-312e-46b6-9963-61645f706362,0*%
%TF.SameCoordinates,Original*%
%TF.FileFunction,Copper,L1,Top*%
%TF.FilePolarity,Positive*%
%FSLAX46Y46*%
G04 Gerber Fmt 4.6, Leading zero omitted, Abs format (unit mm)*
G04 Created by KiCad (PCBNEW 6.0.8-f2edbf62ab~116~ubuntu22.04.1) date 2022-10-18 20:55:33*
%MOMM*%
%LPD*%
G01*
G04 APERTURE LIST*
G04 Aperture macros list*
%AMRoundRect*
0 Rectangle with rounded corners*
0 $1 Rounding radius*
0 $2 $3 $4 $5 $6 $7 $8 $9 X,Y pos of 4 corners*
0 Add a 4 corners polygon primitive as box body*
4,1,4,$2,$3,$4,$5,$6,$7,$8,$9,$2,$3,0*
0 Add four circle primitives for the rounded corners*
1,1,$1+$1,$2,$3*
1,1,$1+$1,$4,$5*
1,1,$1+$1,$6,$7*
1,1,$1+$1,$8,$9*
0 Add four rect primitives between the rounded corners*
20,1,$1+$1,$2,$3,$4,$5,0*
20,1,$1+$1,$4,$5,$6,$7,0*
20,1,$1+$1,$6,$7,$8,$9,0*
20,1,$1+$1,$8,$9,$2,$3,0*%
G04 Aperture macros list end*
%TA.AperFunction,SMDPad,CuDef*%
%ADD10RoundRect,0.135000X0.135000X0.185000X-0.135000X0.185000X-0.135000X-0.185000X0.135000X-0.185000X0*%
%TD*%
%TA.AperFunction,ComponentPad*%
%ADD11C,3.500000*%
%TD*%
%TA.AperFunction,ComponentPad*%
%ADD12C,1.800000*%
%TD*%
%TA.AperFunction,SMDPad,CuDef*%
%ADD13RoundRect,0.225000X0.250000X-0.225000X0.250000X0.225000X-0.250000X0.225000X-0.250000X-0.225000X0*%
%TD*%
%TA.AperFunction,ComponentPad*%
%ADD14R,1.700000X1.700000*%
%TD*%
%TA.AperFunction,ComponentPad*%
%ADD15O,1.700000X1.700000*%
%TD*%
%TA.AperFunction,SMDPad,CuDef*%
%ADD16RoundRect,0.250000X0.325000X0.650000X-0.325000X0.650000X-0.325000X-0.650000X0.325000X-0.650000X0*%
%TD*%
%TA.AperFunction,SMDPad,CuDef*%
%ADD17RoundRect,0.225000X-0.250000X0.225000X-0.250000X-0.225000X0.250000X-0.225000X0.250000X0.225000X0*%
%TD*%
%TA.AperFunction,SMDPad,CuDef*%
%ADD18RoundRect,0.135000X0.185000X-0.135000X0.185000X0.135000X-0.185000X0.135000X-0.185000X-0.135000X0*%
%TD*%
%TA.AperFunction,SMDPad,CuDef*%
%ADD19R,2.000000X1.500000*%
%TD*%
%TA.AperFunction,SMDPad,CuDef*%
%ADD20R,2.000000X3.800000*%
%TD*%
%TA.AperFunction,ComponentPad*%
%ADD21R,1.500000X1.500000*%
%TD*%
%TA.AperFunction,ComponentPad*%
%ADD22C,1.500000*%
%TD*%
%TA.AperFunction,SMDPad,CuDef*%
%ADD23R,0.400000X1.350000*%
%TD*%
%TA.AperFunction,SMDPad,CuDef*%
%ADD24R,1.500000X1.550000*%
%TD*%
%TA.AperFunction,ComponentPad*%
%ADD25O,0.890000X1.550000*%
%TD*%
%TA.AperFunction,ComponentPad*%
%ADD26O,1.250000X0.950000*%
%TD*%
%TA.AperFunction,SMDPad,CuDef*%
%ADD27R,1.200000X1.550000*%
%TD*%
%TA.AperFunction,ComponentPad*%
%ADD28R,1.300000X1.300000*%
%TD*%
%TA.AperFunction,ComponentPad*%
%ADD29C,1.300000*%
%TD*%
%TA.AperFunction,SMDPad,CuDef*%
%ADD30R,2.600000X1.100000*%
%TD*%
%TA.AperFunction,SMDPad,CuDef*%
%ADD31R,3.200000X3.200000*%
%TD*%
%TA.AperFunction,ViaPad*%
%ADD32C,0.800000*%
%TD*%
%TA.AperFunction,Conductor*%
%ADD33C,0.250000*%
%TD*%
G04 APERTURE END LIST*
D10*
%TO.P,R5,1*%
%TO.N,Net-(R5-Pad1)*%
X130210000Y-117600000D03*
%TO.P,R5,2*%
%TO.N,GND*%
X129190000Y-117600000D03*
%TD*%
%TO.P,R2,1*%
%TO.N,IO13*%
X113610000Y-123400000D03*
%TO.P,R2,2*%
%TO.N,Net-(Q1-Pad2)*%
X112590000Y-123400000D03*
%TD*%
D11*
%TO.P,REF\u002A\u002A,1*%
%TO.N,N/C*%
X95300000Y-104800000D03*
%TD*%
D10*
%TO.P,R1,1*%
%TO.N,IO12*%
X128610000Y-128800000D03*
%TO.P,R1,2*%
%TO.N,+3.3V*%
X127590000Y-128800000D03*
%TD*%
D12*
%TO.P,BZ1,1,-*%
%TO.N,BZV*%
X105200000Y-127600000D03*
%TO.P,BZ1,2,+*%
%TO.N,Net-(BZ1-Pad2)*%
X110200000Y-127600000D03*
%TD*%
D13*
%TO.P,C3,1*%
%TO.N,GND*%
X113600000Y-119175000D03*
%TO.P,C3,2*%
%TO.N,+3.3V*%
X113600000Y-117625000D03*
%TD*%
D14*
%TO.P,J3,1,Pin_1*%
%TO.N,TXD*%
X133470000Y-102300000D03*
D15*
%TO.P,J3,2,Pin_2*%
%TO.N,RXD*%
X133470000Y-104840000D03*
%TO.P,J3,3,Pin_3*%
%TO.N,GND*%
X133470000Y-107380000D03*
%TO.P,J3,4,Pin_4*%
%TO.N,IO5*%
X133470000Y-109920000D03*
%TO.P,J3,5,Pin_5*%
%TO.N,IO4*%
X133470000Y-112460000D03*
%TO.P,J3,6,Pin_6*%
%TO.N,IO0*%
X133470000Y-115000000D03*
%TO.P,J3,7,Pin_7*%
%TO.N,GND*%
X133470000Y-117540000D03*
%TD*%
D16*
%TO.P,C2,1*%
%TO.N,+3.3V*%
X118475000Y-123400000D03*
%TO.P,C2,2*%
%TO.N,GND*%
X115525000Y-123400000D03*
%TD*%
D10*
%TO.P,R4,1*%
%TO.N,+3.3V*%
X109010000Y-113700000D03*
%TO.P,R4,2*%
%TO.N,Net-(R4-Pad2)*%
X107990000Y-113700000D03*
%TD*%
D16*
%TO.P,C1,1*%
%TO.N,+5V*%
X118475000Y-126400000D03*
%TO.P,C1,2*%
%TO.N,GND*%
X115525000Y-126400000D03*
%TD*%
D17*
%TO.P,C4,1*%
%TO.N,+3.3V*%
X115600000Y-117625000D03*
%TO.P,C4,2*%
%TO.N,GND*%
X115600000Y-119175000D03*
%TD*%
D18*
%TO.P,R3,1*%
%TO.N,+3.3V*%
X109400000Y-112210000D03*
%TO.P,R3,2*%
%TO.N,Net-(R3-Pad2)*%
X109400000Y-111190000D03*
%TD*%
D19*
%TO.P,U2,1,GND*%
%TO.N,GND*%
X120950000Y-121100000D03*
%TO.P,U2,2,VO*%
%TO.N,+3.3V*%
X120950000Y-123400000D03*
D20*
X127250000Y-123400000D03*
D19*
%TO.P,U2,3,VI*%
%TO.N,+5V*%
X120950000Y-125700000D03*
%TD*%
D21*
%TO.P,U1,1,VDD*%
%TO.N,+3.3V*%
X134400000Y-130510000D03*
D22*
%TO.P,U1,2,DATA*%
%TO.N,IO12*%
X134400000Y-127970000D03*
%TO.P,U1,3,NULL*%
%TO.N,unconnected-(U1-Pad3)*%
X134400000Y-125430000D03*
%TO.P,U1,4,GND*%
%TO.N,GND*%
X134400000Y-122890000D03*
%TD*%
D23*
%TO.P,J1,1,VBUS*%
%TO.N,+5V*%
X118200000Y-130550000D03*
%TO.P,J1,2,D-*%
%TO.N,unconnected-(J1-Pad2)*%
X118850000Y-130550000D03*
%TO.P,J1,3,D+*%
%TO.N,unconnected-(J1-Pad3)*%
X119500000Y-130550000D03*
%TO.P,J1,4,ID*%
%TO.N,unconnected-(J1-Pad4)*%
X120150000Y-130550000D03*
%TO.P,J1,5,GND*%
%TO.N,GND*%
X120800000Y-130550000D03*
D24*
%TO.P,J1,6,Shield*%
%TO.N,unconnected-(J1-Pad6)*%
X118500000Y-133250000D03*
D25*
X116000000Y-133250000D03*
D26*
X122000000Y-130550000D03*
D27*
X122400000Y-133250000D03*
D26*
X117000000Y-130550000D03*
D25*
X123000000Y-133250000D03*
D27*
X116600000Y-133250000D03*
D24*
X120500000Y-133250000D03*
%TD*%
D10*
%TO.P,R6,1*%
%TO.N,IO0*%
X130210000Y-119000000D03*
%TO.P,R6,2*%
%TO.N,+3.3V*%
X129190000Y-119000000D03*
%TD*%
D14*
%TO.P,J2,1,Pin_1*%
%TO.N,ADC*%
X105500000Y-102300000D03*
D15*
%TO.P,J2,2,Pin_2*%
%TO.N,IO16*%
X105500000Y-104840000D03*
%TO.P,J2,3,Pin_3*%
%TO.N,+5V*%
X105500000Y-107380000D03*
%TO.P,J2,4,Pin_4*%
%TO.N,IO14*%
X105500000Y-109920000D03*
%TO.P,J2,5,Pin_5*%
%TO.N,GND*%
X105500000Y-112460000D03*
%TO.P,J2,6,Pin_6*%
%TO.N,+5V*%
X105500000Y-115000000D03*
%TO.P,J2,7,Pin_7*%
%TO.N,BZV*%
X105500000Y-117540000D03*
%TD*%
D28*
%TO.P,Q1,1,E*%
%TO.N,GND*%
X109740000Y-118530000D03*
D29*
%TO.P,Q1,2,B*%
%TO.N,Net-(Q1-Pad2)*%
X111010000Y-119800000D03*
%TO.P,Q1,3,C*%
%TO.N,Net-(BZ1-Pad2)*%
X109740000Y-121070000D03*
%TD*%
D30*
%TO.P,U3,1,RST*%
%TO.N,Net-(R3-Pad2)*%
X111500000Y-101000000D03*
%TO.P,U3,2,ADC*%
%TO.N,ADC*%
X111500000Y-103000000D03*
%TO.P,U3,3,EN*%
%TO.N,Net-(R4-Pad2)*%
X111500000Y-105000000D03*
%TO.P,U3,4,GPIO16*%
%TO.N,IO16*%
X111500000Y-107000000D03*
%TO.P,U3,5,GPIO14*%
%TO.N,IO14*%
X111500000Y-109000000D03*
%TO.P,U3,6,GPIO12*%
%TO.N,IO12*%
X111500000Y-111000000D03*
%TO.P,U3,7,GPIO13*%
%TO.N,IO13*%
X111500000Y-113000000D03*
%TO.P,U3,8,VCC*%
%TO.N,+3.3V*%
X111500000Y-115000000D03*
%TO.P,U3,9,GND*%
%TO.N,GND*%
X127500000Y-115000000D03*
%TO.P,U3,10,GPIO15*%
%TO.N,Net-(R5-Pad1)*%
X127500000Y-113000000D03*
%TO.P,U3,11,GPIO2*%
%TO.N,unconnected-(U3-Pad11)*%
X127500000Y-111000000D03*
%TO.P,U3,12,GPIO0*%
%TO.N,IO0*%
X127500000Y-109000000D03*
%TO.P,U3,13,GPIO4*%
%TO.N,IO4*%
X127500000Y-107000000D03*
%TO.P,U3,14,GPIO5*%
%TO.N,IO5*%
X127500000Y-105000000D03*
%TO.P,U3,15,RXD0*%
%TO.N,RXD*%
X127500000Y-103000000D03*
%TO.P,U3,16,TXD0*%
%TO.N,TXD*%
X127500000Y-101000000D03*
D31*
%TO.P,U3,P$1,P$1*%
%TO.N,unconnected-(U3-PadP$1)*%
X119500000Y-105700000D03*
%TD*%
D32*
%TO.N,+5V*%
X108000000Y-115000000D03*
X114500000Y-128600000D03*
%TO.N,GND*%
X120800000Y-128600000D03*
X128500000Y-116500000D03*
X117200000Y-121100000D03*
%TO.N,IO12*%
X114500000Y-111000000D03*
X128600000Y-127600000D03*
%TO.N,IO13*%
X113600000Y-113000000D03*
X113600000Y-122500000D03*
%TO.N,Net-(R3-Pad2)*%
X115500000Y-106300000D03*
X109400000Y-109800000D03*
%TO.N,Net-(R4-Pad2)*%
X114600000Y-107300000D03*
X108000000Y-112500000D03*
%TD*%
D33*
%TO.N,+3.3V*%
X109010000Y-113700000D02*
X109600000Y-113700000D01*
X129300000Y-130510000D02*
X134400000Y-130510000D01*
X129190000Y-119000000D02*
X127250000Y-120940000D01*
X127590000Y-128800000D02*
X129300000Y-130510000D01*
X109700000Y-114800000D02*
X109900000Y-115000000D01*
X109600000Y-113700000D02*
X109700000Y-113800000D01*
X118575000Y-123600000D02*
X120750000Y-123600000D01*
X127590000Y-128800000D02*
X127250000Y-128460000D01*
X109700000Y-113000000D02*
X109700000Y-113800000D01*
X115600000Y-117625000D02*
X119875000Y-117625000D01*
X120950000Y-123400000D02*
X122400000Y-123400000D01*
X109400000Y-112210000D02*
X109400000Y-112700000D01*
X111500000Y-115000000D02*
X113600000Y-117100000D01*
X113600000Y-117100000D02*
X113600000Y-117625000D01*
X113600000Y-117625000D02*
X115600000Y-117625000D01*
X119875000Y-117625000D02*
X122400000Y-120150000D01*
X109700000Y-113800000D02*
X109700000Y-114800000D01*
X109400000Y-112700000D02*
X109700000Y-113000000D01*
X122400000Y-123400000D02*
X127250000Y-123400000D01*
X127250000Y-128460000D02*
X127250000Y-123400000D01*
X127250000Y-120940000D02*
X127250000Y-123400000D01*
X122400000Y-120150000D02*
X122400000Y-123400000D01*
X109900000Y-115000000D02*
X111500000Y-115000000D01*
%TO.N,+5V*%
X118200000Y-128600000D02*
X118200000Y-126675000D01*
X120950000Y-126450000D02*
X120950000Y-125700000D01*
X114500000Y-128600000D02*
X118200000Y-128600000D01*
X104200000Y-115000000D02*
X105700000Y-115000000D01*
X119400000Y-125700000D02*
X120950000Y-125700000D01*
X105700000Y-107380000D02*
X104320000Y-107380000D01*
X108000000Y-115000000D02*
X106230000Y-115000000D01*
X118700000Y-126400000D02*
X119400000Y-125700000D01*
X104320000Y-107380000D02*
X103800000Y-107900000D01*
X118200000Y-126675000D02*
X118475000Y-126400000D01*
X103800000Y-114600000D02*
X104200000Y-115000000D01*
X118200000Y-130550000D02*
X118200000Y-128600000D01*
X103800000Y-107900000D02*
X103800000Y-114600000D01*
%TO.N,GND*%
X115600000Y-119500000D02*
X117200000Y-121100000D01*
X120800000Y-130550000D02*
X120800000Y-128600000D01*
X117200000Y-121100000D02*
X120950000Y-121100000D01*
X128500000Y-116500000D02*
X128500000Y-116000000D01*
X128500000Y-116000000D02*
X127500000Y-115000000D01*
X129190000Y-117190000D02*
X128500000Y-116500000D01*
X113600000Y-119175000D02*
X115600000Y-119175000D01*
X129190000Y-117600000D02*
X129190000Y-117190000D01*
%TO.N,ADC*%
X105700000Y-102300000D02*
X108100000Y-102300000D01*
X108800000Y-103000000D02*
X111500000Y-103000000D01*
X108100000Y-102300000D02*
X108800000Y-103000000D01*
%TO.N,Net-(BZ1-Pad2)*%
X109740000Y-121070000D02*
X109740000Y-127140000D01*
%TO.N,Net-(Q1-Pad2)*%
X111010000Y-119800000D02*
X111010000Y-121820000D01*
X111010000Y-121820000D02*
X112590000Y-123400000D01*
%TO.N,BZV*%
X105500000Y-117540000D02*
X105500000Y-127300000D01*
%TO.N,IO16*%
X106230000Y-104840000D02*
X108140000Y-104840000D01*
X108140000Y-104840000D02*
X110300000Y-107000000D01*
X110300000Y-107000000D02*
X112200000Y-107000000D01*
%TO.N,IO14*%
X106230000Y-109920000D02*
X107150000Y-109000000D01*
X107150000Y-109000000D02*
X112200000Y-109000000D01*
%TO.N,IO5*%
X127500000Y-105000000D02*
X131400000Y-105000000D01*
X132520000Y-109920000D02*
X133470000Y-109920000D01*
X132100000Y-109500000D02*
X132520000Y-109920000D01*
X131400000Y-105000000D02*
X132100000Y-105700000D01*
X132100000Y-105700000D02*
X132100000Y-109500000D01*
%TO.N,TXD*%
X129200000Y-102300000D02*
X133470000Y-102300000D01*
X127900000Y-101000000D02*
X129200000Y-102300000D01*
%TO.N,RXD*%
X127500000Y-103000000D02*
X131630000Y-103000000D01*
X131630000Y-103000000D02*
X133470000Y-104840000D01*
%TO.N,IO4*%
X131960000Y-112460000D02*
X133470000Y-112460000D01*
X131100000Y-107000000D02*
X131600000Y-107500000D01*
X131600000Y-107500000D02*
X131600000Y-112100000D01*
X131600000Y-112100000D02*
X131960000Y-112460000D01*
X127500000Y-107000000D02*
X131100000Y-107000000D01*
%TO.N,IO0*%
X131100000Y-109300000D02*
X131100000Y-114600000D01*
X131100000Y-118110000D02*
X131100000Y-114600000D01*
X131500000Y-115000000D02*
X133470000Y-115000000D01*
X130210000Y-119000000D02*
X131100000Y-118110000D01*
X131100000Y-114600000D02*
X131500000Y-115000000D01*
X130800000Y-109000000D02*
X131100000Y-109300000D01*
X127500000Y-109000000D02*
X130800000Y-109000000D01*
%TO.N,IO12*%
X111500000Y-111000000D02*
X114500000Y-111000000D01*
X128600000Y-127600000D02*
X128600000Y-128790000D01*
X133570000Y-128800000D02*
X134400000Y-127970000D01*
X128610000Y-128800000D02*
X133570000Y-128800000D01*
%TO.N,IO13*%
X111500000Y-113000000D02*
X113600000Y-113000000D01*
X113600000Y-122500000D02*
X113600000Y-123390000D01*
%TO.N,Net-(R3-Pad2)*%
X115000000Y-101000000D02*
X111500000Y-101000000D01*
X109400000Y-109800000D02*
X109400000Y-111190000D01*
X115500000Y-106300000D02*
X115500000Y-101500000D01*
X115500000Y-101500000D02*
X115000000Y-101000000D01*
%TO.N,Net-(R4-Pad2)*%
X107990000Y-113700000D02*
X107990000Y-112510000D01*
X113600000Y-105000000D02*
X111500000Y-105000000D01*
X107990000Y-112510000D02*
X108000000Y-112500000D01*
X114600000Y-107300000D02*
X114600000Y-106000000D01*
X114600000Y-106000000D02*
X113600000Y-105000000D01*
%TO.N,Net-(R5-Pad1)*%
X130210000Y-113310000D02*
X130210000Y-117600000D01*
X129900000Y-113000000D02*
X130210000Y-113310000D01*
X127500000Y-113000000D02*
X129900000Y-113000000D01*
%TD*%
M02*
